<svg width="87" height="17" viewBox="0 0 87 17" fill="none" xmlns="http://www.w3.org/2000/svg">
<path fill-rule="evenodd" clip-rule="evenodd" d="M0.505859 13.2845H4.71911L4.95522 7.17248H5.0716L6.63453 13.2845H9.70718L11.2535 7.17248H11.3865L11.6226 13.2845H15.8392L15.0843 0.687988H9.81027L8.24734 7.10264H8.0977L6.53477 0.687988H1.27735L0.505859 13.2845ZM16.9866 13.2845H24.226V13.2812C25.3466 13.2812 26.1713 12.9786 26.7034 12.3667C27.2355 11.7548 27.5015 10.9468 27.5015 9.93919C27.5015 8.00382 26.6901 6.89314 25.0673 6.61381V6.49742C25.626 6.34113 26.0682 6.01857 26.3941 5.53306C26.7167 5.04423 26.8796 4.33593 26.8796 3.4414C26.8796 2.54687 26.6236 1.86185 26.1081 1.39297C25.5927 0.92409 24.7314 0.687988 23.521 0.687988H16.9866V13.2845ZM21.1999 3.4414H22.2939C22.7861 3.4414 23.0322 3.75399 23.0322 4.38248C23.0322 5.01098 22.7761 5.32357 22.2607 5.32357H21.1999C21.1001 5.32357 21.017 5.24043 21.017 5.14067V3.6243C21.017 3.52454 21.1001 3.4414 21.1999 3.4414ZM21.1999 8.2632H22.5965H22.5999C23.1452 8.2632 23.4212 8.59241 23.4212 9.28742C23.4212 9.98242 23.1353 10.3283 22.5633 10.3283H21.1999C21.1001 10.3283 21.017 10.2451 21.017 10.1454V8.4461C21.017 8.34633 21.1001 8.2632 21.1999 8.2632ZM37.6972 3.91361H34.7742V13.2845H30.7439V3.91361H27.8208V0.687988H37.6972V3.91361ZM39.1403 0.687988V13.2845H43.1707V0.687988H39.1403ZM44.9401 15.7622L45.4156 13.0254C46.4664 13.3813 47.6835 13.5608 49.0702 13.5608C49.273 13.5608 49.4493 13.5608 49.5989 13.5542C49.7453 13.5475 49.8616 13.5409 49.9448 13.5309V12.8891C49.3928 12.8891 48.9438 12.8758 48.598 12.8492C48.2522 12.8226 47.9895 12.786 47.8165 12.7361C47.4707 12.643 47.2512 12.5532 47.1581 12.4601C47.045 12.367 46.9785 12.2939 46.9586 12.2373C46.9386 12.1808 46.9287 12.0977 46.9287 11.9846L47.4807 10.4084C46.6028 10.2454 45.9344 9.90956 45.4755 9.40743C45.0166 8.9053 44.7871 8.11386 44.7871 7.04309C44.7871 5.97231 45.1496 5.18087 45.8745 4.64216C46.5994 4.10345 47.77 3.83077 49.3928 3.83077C49.6887 3.83077 49.9647 3.83742 50.2175 3.85405C50.4735 3.87068 50.7163 3.89728 50.9524 3.93718L52.5585 2.71344L54.4872 4.56568L53.4331 5.78942C53.596 6.20842 53.6792 6.7571 53.6792 7.44213C53.6792 7.92099 53.6226 8.33998 53.5096 8.6958C53.3965 9.05161 53.2103 9.35422 52.9509 9.59698C52.6915 9.84305 52.3523 10.0326 51.9334 10.1723C51.5144 10.3086 50.9956 10.405 50.3738 10.4549L50.2973 10.8972C50.959 10.9371 51.521 11.0003 51.9799 11.0867C52.4388 11.1732 52.8113 11.3095 53.0972 11.4924C53.3832 11.6753 53.5894 11.9114 53.7158 12.1974C53.8421 12.4834 53.9086 12.8459 53.9086 13.2848C53.9086 14.0197 53.759 14.5917 53.4664 14.9974C53.1704 15.4064 52.7846 15.7057 52.3124 15.8986C51.8369 16.0914 51.3015 16.2112 50.7063 16.2511C50.111 16.291 49.5092 16.3109 48.9106 16.3109C47.6968 16.3109 46.3766 16.128 44.9501 15.7589L44.9401 15.7622ZM48.2455 7.04309V7.67158C48.2455 7.98417 48.4982 8.2369 48.8108 8.2369C49.2498 8.2369 49.569 8.19034 49.7752 8.10056C49.978 8.00745 50.0811 7.80127 50.0811 7.47206V6.84356C50.0811 6.53098 49.8284 6.27825 49.5158 6.27825H49.4992C49.0602 6.27825 48.741 6.3248 48.5415 6.41459C48.3419 6.5077 48.2422 6.71387 48.2422 7.04309H48.2455ZM55.2654 4.10685V13.2849H58.9366V8.03745C59.0298 7.92439 59.1628 7.82463 59.3357 7.73817C59.5119 7.65171 59.7015 7.57522 59.911 7.51537C60.1205 7.45551 60.3267 7.4023 60.5295 7.3624C60.7323 7.32249 60.9053 7.30254 61.0483 7.30254L60.8354 3.83085C59.7547 4.02372 58.8469 4.45934 58.1119 5.13107L57.101 4.10685H55.2654ZM66.4917 3.83085C69.428 3.83085 70.8978 4.84176 70.8978 6.86027V13.2849H69.0622L68.0214 12.2441C67.8385 12.4469 67.6223 12.6331 67.3696 12.7961C67.1202 12.959 66.8508 13.0987 66.5648 13.2084C66.2789 13.3181 65.9896 13.4079 65.6936 13.4678C65.3976 13.5276 65.1117 13.5609 64.8357 13.5609C64.3169 13.5609 63.848 13.5077 63.4357 13.4013C63.0233 13.2949 62.6742 13.122 62.3882 12.8892C62.1022 12.6531 61.8827 12.3438 61.7298 11.9547C61.5768 11.5657 61.5003 11.0935 61.5003 10.5315C61.5003 8.33008 63.163 7.22606 66.4884 7.22606H67.2233V6.56763C67.0304 6.55766 66.8542 6.54768 66.6945 6.5377C66.5349 6.52773 66.3919 6.52108 66.2589 6.52108C64.8822 6.52108 63.695 6.69067 62.6941 7.02653L62.2518 4.39616C63.4756 4.02039 64.8889 3.83085 66.4884 3.83085H66.4917ZM65.2081 10.1324V10.302C65.2081 10.6213 65.4675 10.8806 65.7867 10.8806H65.9729C66.5017 10.8806 66.8508 10.8208 67.0138 10.6978C67.1568 10.5647 67.2266 10.4084 67.2266 10.2222V9.92959C67.2266 9.61035 66.9672 9.35097 66.648 9.35097H66.4784C66.0394 9.35097 65.7169 9.39753 65.514 9.48731C65.3112 9.58042 65.2081 9.79325 65.2081 10.1291V10.1324ZM77.6883 7.04649V13.2849H81.3528V7.59517C81.3628 7.42226 81.406 7.28591 81.4825 7.18283C81.559 7.07974 81.6521 7.00658 81.7585 6.96003C81.8683 6.91347 81.9913 6.88687 82.1343 6.87689C82.2207 6.87024 82.4635 6.86359 82.6364 6.86359C82.7395 6.86027 82.8226 6.9434 82.8226 7.04649V13.2849H86.4939V6.00564C86.4939 5.36385 86.2079 4.75198 85.6658 4.38286C85.1238 4.01374 84.3423 3.83085 83.3746 3.83085C82.407 3.83085 81.539 4.08025 80.7742 4.57906C80.2255 4.08025 79.3576 3.83085 78.1438 3.83085C76.9301 3.83085 75.9524 4.20329 75.2075 4.94817L74.3828 4.10685H72.5472V13.2882H76.2184V7.70491C76.2184 7.49874 76.2517 7.34245 76.3115 7.22938C76.3714 7.11632 76.4579 7.03319 76.5709 6.97665C76.6807 6.92012 76.8104 6.88687 76.96 6.87689C77.0531 6.87024 77.3191 6.86359 77.502 6.86359C77.6051 6.86027 77.6883 6.9434 77.6883 7.04649Z" fill="white"/>
</svg>
