<svg width="25" height="24" viewBox="0 0 25 24" fill="none" xmlns="http://www.w3.org/2000/svg">
<path fill-rule="evenodd" clip-rule="evenodd" d="M12.1388 0.692871C12.9188 0.692871 13.5511 1.32519 13.5511 2.10519V12.5547L17.0829 9.32708C17.6587 8.80088 18.552 8.84108 19.0782 9.41686C19.6044 9.99264 19.5642 10.886 18.9884 11.4122L13.0915 16.8012C12.9111 16.9661 12.6957 17.0776 12.4675 17.1322C12.0271 17.2377 11.5438 17.13 11.1843 16.8015L5.28746 11.4124C4.71168 10.8862 4.67149 9.99291 5.19768 9.41713C5.72388 8.84135 6.6172 8.80115 7.19299 9.32735L10.7265 12.5565V2.10519C10.7265 1.32519 11.3588 0.692871 12.1388 0.692871ZM2.91448 15.8655C2.91448 15.0855 2.28217 14.4532 1.50216 14.4532C0.722161 14.4532 0.0898438 15.0855 0.0898438 15.8655V18.9668C0.0898438 21.7238 2.3246 23.9585 5.08155 23.9585H19.1936C21.9505 23.9585 24.1853 21.7238 24.1853 18.9668V15.8655C24.1853 15.0855 23.553 14.4532 22.773 14.4532C21.993 14.4532 21.3606 15.0855 21.3606 15.8655V18.9668C21.3606 20.1637 20.3905 21.1339 19.1936 21.1339H5.08155C3.88461 21.1339 2.91448 20.1637 2.91448 18.9668V15.8655Z" fill="white"/>
</svg>
