<svg width="71" height="13" viewBox="0 0 71 13" fill="none" xmlns="http://www.w3.org/2000/svg">
<g clip-path="url(#clip0_307_511)">
<path d="M3.48136 10.4797H0L0.636968 0H4.97769L6.2681 5.33667H6.39165L7.68206 0H12.0365L12.6597 10.4797H9.17838L8.98345 5.39476H8.87363L7.59695 10.4797H5.06005L3.76964 5.39476H3.67355L3.47862 10.4797H3.48136Z" fill="#1D1D1B" fill-opacity="0.2"/>
<path d="M19.584 10.4797H13.6069V0H19.0019C20.0013 0 20.7124 0.196425 21.138 0.586508C21.5635 0.976591 21.775 1.5465 21.775 2.2907C21.775 3.0349 21.6404 3.62418 21.3741 4.03086C21.105 4.43477 20.7399 4.70313 20.2786 4.83316V4.92999C21.6185 5.16237 22.2884 6.0864 22.2884 7.69653C22.2884 8.53479 22.0687 9.20706 21.6294 9.71611C21.1902 10.2252 20.5093 10.4769 19.584 10.4769V10.4797ZM17.9888 2.2907H17.0855C17.0032 2.2907 16.9345 2.35986 16.9345 2.44286V3.70441C16.9345 3.7874 17.0032 3.85656 17.0855 3.85656H17.9614C18.3869 3.85656 18.5983 3.59651 18.5983 3.07363C18.5983 2.55076 18.3952 2.2907 17.9888 2.2907ZM18.2387 6.30219H17.0855C17.0032 6.30219 16.9345 6.37136 16.9345 6.45435V7.86806C16.9345 7.95105 17.0032 8.02022 17.0855 8.02022H18.2112C18.6835 8.02022 18.9196 7.7325 18.9196 7.15429C18.9196 6.57608 18.6917 6.30219 18.2414 6.30219H18.2387Z" fill="#1D1D1B" fill-opacity="0.2"/>
<path d="M30.7063 2.68355H28.293V10.4797H24.9653V2.68355H22.552V0H30.7063V2.68355Z" fill="#1D1D1B" fill-opacity="0.2"/>
<path d="M31.8978 10.4797V0H35.2254V10.4797H31.8978Z" fill="#1D1D1B" fill-opacity="0.2"/>
<path d="M36.6861 12.541L37.0787 10.2641C37.9463 10.5601 38.9512 10.7095 40.0961 10.7095C40.2636 10.7095 40.4091 10.7095 40.5326 10.704C40.6534 10.6985 40.7495 10.6929 40.8182 10.6846V10.1507C40.3624 10.1507 39.9918 10.1396 39.7062 10.1175C39.4207 10.0954 39.2038 10.0649 39.061 10.0234C38.7755 9.94596 38.5943 9.87127 38.5174 9.79381C38.424 9.71634 38.3691 9.65548 38.3527 9.60845C38.3362 9.56141 38.328 9.49225 38.328 9.39819L38.7837 8.08685C38.0589 7.95129 37.507 7.67186 37.1281 7.25412C36.7493 6.83637 36.5598 6.17793 36.5598 5.2871C36.5598 4.39627 36.8591 3.73784 37.4576 3.28966C38.0561 2.84147 39.0226 2.61462 40.3624 2.61462C40.6068 2.61462 40.8346 2.62015 41.0433 2.63398C41.2547 2.64782 41.4551 2.66995 41.6501 2.70315L42.9762 1.68506L44.5686 3.22602L43.6983 4.24411C43.8328 4.5927 43.9014 5.04918 43.9014 5.61909C43.9014 6.01747 43.8547 6.36605 43.7614 6.66207C43.668 6.9581 43.5143 7.20985 43.3001 7.41181C43.086 7.61653 42.8059 7.77423 42.46 7.89042C42.1141 8.00385 41.6858 8.08408 41.1723 8.12558L41.1092 8.49353C41.6556 8.52673 42.1196 8.57929 42.4984 8.65122C42.8773 8.72315 43.1848 8.83658 43.4209 8.98874C43.6571 9.1409 43.8273 9.33733 43.9316 9.57525C44.036 9.81317 44.0909 10.1147 44.0909 10.4799C44.0909 11.0913 43.9673 11.5672 43.7257 11.9047C43.4814 12.245 43.1629 12.494 42.773 12.6544C42.3804 12.8149 41.9384 12.9145 41.4469 12.9477C40.9554 12.9809 40.4585 12.9975 39.9643 12.9975C38.9622 12.9975 37.8722 12.8453 36.6943 12.5382L36.6861 12.541ZM39.4152 5.2871V5.80998C39.4152 6.07003 39.6238 6.28029 39.8819 6.28029C40.2443 6.28029 40.5079 6.24156 40.6781 6.16686C40.8456 6.0894 40.9307 5.91787 40.9307 5.64399V5.12111C40.9307 4.86105 40.7221 4.6508 40.464 4.6508H40.4503C40.0878 4.6508 39.8243 4.68953 39.6595 4.76422C39.4948 4.84169 39.4124 5.01321 39.4124 5.2871H39.4152Z" fill="#1D1D1B" fill-opacity="0.2"/>
<path d="M45.2111 10.4795V2.84388H46.7266L47.5613 3.69598C48.168 3.13713 48.9176 2.77472 49.8099 2.61426L49.9856 5.50253C49.8675 5.50253 49.7247 5.51913 49.5573 5.55233C49.3898 5.58553 49.2196 5.62979 49.0466 5.67959C48.8736 5.72939 48.7171 5.79302 48.5716 5.86495C48.4288 5.93688 48.319 6.01988 48.2422 6.11394V10.4795H45.2111Z" fill="#1D1D1B" fill-opacity="0.2"/>
<path d="M54.48 2.61426C56.9043 2.61426 58.1178 3.45529 58.1178 5.13458V10.4795H56.6023L55.7429 9.61362C55.5919 9.78238 55.4135 9.9373 55.2048 10.0729C54.9989 10.2084 54.7765 10.3246 54.5404 10.4159C54.3042 10.5072 54.0654 10.5819 53.821 10.6317C53.5767 10.6815 53.3406 10.7092 53.1127 10.7092C52.6844 10.7092 52.2972 10.6649 51.9568 10.5764C51.6164 10.4878 51.3281 10.344 51.0919 10.1503C50.8558 9.9539 50.6746 9.69662 50.5483 9.37293C50.422 9.04924 50.3589 8.65639 50.3589 8.18885C50.3589 6.35739 51.7317 5.4389 54.4772 5.4389H55.084V4.89113C54.9247 4.88283 54.7792 4.87453 54.6474 4.86623C54.5157 4.85793 54.3976 4.85239 54.2878 4.85239C53.1511 4.85239 52.171 4.99349 51.3445 5.27291L50.9794 3.08457C51.9897 2.77195 53.1566 2.61426 54.4772 2.61426H54.48ZM53.4202 7.85686V7.99796C53.4202 8.26354 53.6343 8.47934 53.8979 8.47934H54.0517C54.4882 8.47934 54.7765 8.42954 54.911 8.32718C55.0291 8.21651 55.0867 8.08649 55.0867 7.93156V7.6881C55.0867 7.42251 54.8726 7.20672 54.609 7.20672H54.469C54.1066 7.20672 53.8402 7.24546 53.6728 7.32015C53.5053 7.39762 53.4202 7.57467 53.4202 7.8541V7.85686Z" fill="#1D1D1B" fill-opacity="0.2"/>
<path d="M63.7242 10.4795V5.28951C63.7242 5.20375 63.6556 5.13458 63.5705 5.13735C63.4195 5.13735 63.1998 5.14288 63.123 5.14841C62.9994 5.15671 62.8923 5.18438 62.8017 5.23141C62.7084 5.27844 62.637 5.34761 62.5876 5.44167C62.5382 5.53573 62.5107 5.66576 62.5107 5.83728V10.4823H59.4796V2.84388H60.9952L61.6761 3.54382C62.2911 2.92411 63.0983 2.61426 64.1004 2.61426C65.1025 2.61426 65.8191 2.82175 66.2721 3.23673C66.9036 2.82175 67.6202 2.61426 68.4191 2.61426C69.2181 2.61426 69.8633 2.76642 70.3108 3.0735C70.7583 3.38059 70.9945 3.88964 70.9945 4.42358V10.4795H67.9634V5.28951C67.9634 5.20375 67.8947 5.13458 67.8096 5.13735C67.6669 5.13735 67.4664 5.14288 67.395 5.14841C67.277 5.15671 67.1754 5.17885 67.0848 5.21758C66.9969 5.25631 66.9201 5.31717 66.8569 5.40294C66.7938 5.4887 66.7581 5.60213 66.7498 5.74599V10.4795H63.7187H63.7242Z" fill="#1D1D1B" fill-opacity="0.2"/>
</g>
<defs>
<clipPath id="clip0_307_511">
<rect width="71" height="13" fill="white"/>
</clipPath>
</defs>
</svg>
