<svg width="259" height="47" viewBox="0 0 259 47" fill="none" xmlns="http://www.w3.org/2000/svg">
<g clip-path="url(#clip0_245_165)">
<path d="M12.8802 37.88H0.200195L2.5202 0H18.3302L23.0302 19.29H23.4802L28.1802 0H44.0402L46.3102 37.88H33.6302L32.9202 19.5H32.5202L27.8702 37.88H18.6302L13.9302 19.5H13.5802L12.8702 37.88H12.8802Z" fill="#1D1D1B"/>
<path d="M71.5302 37.88H49.7602V0H69.4102C73.0502 0 75.6402 0.71 77.1902 2.12C78.7402 3.53 79.5102 5.59 79.5102 8.28C79.5102 10.97 79.0202 13.1 78.0502 14.57C77.0702 16.03 75.7402 17 74.0602 17.47V17.82C78.9402 18.66 81.3802 22 81.3802 27.82C81.3802 30.85 80.5802 33.28 78.9802 35.12C77.3802 36.96 74.9002 37.87 71.5302 37.87V37.88ZM65.7202 8.28H62.4302C62.1302 8.28 61.8802 8.53 61.8802 8.83V13.39C61.8802 13.69 62.1302 13.94 62.4302 13.94H65.6202C67.1702 13.94 67.9402 13 67.9402 11.11C67.9402 9.22 67.2002 8.28 65.7202 8.28ZM66.6302 22.78H62.4302C62.1302 22.78 61.8802 23.03 61.8802 23.33V28.44C61.8802 28.74 62.1302 28.99 62.4302 28.99H66.5302C68.2502 28.99 69.1102 27.95 69.1102 25.86C69.1102 23.77 68.2802 22.78 66.6402 22.78H66.6302Z" fill="#1D1D1B"/>
<path d="M112.04 9.7H103.25V37.88H91.1302V9.7H82.3402V0H112.04V9.7Z" fill="#1D1D1B"/>
<path d="M116.38 37.88V0H128.5V37.88H116.38Z" fill="#1D1D1B"/>
<path d="M133.82 45.3298L135.25 37.0998C138.41 38.1698 142.07 38.7098 146.24 38.7098C146.85 38.7098 147.38 38.7098 147.83 38.6898C148.27 38.6698 148.62 38.6498 148.87 38.6198V36.6898C147.21 36.6898 145.86 36.6498 144.82 36.5698C143.78 36.4898 142.99 36.3798 142.47 36.2298C141.43 35.9498 140.77 35.6798 140.49 35.3998C140.15 35.1198 139.95 34.8998 139.89 34.7298C139.83 34.5598 139.8 34.3098 139.8 33.9698L141.46 29.2298C138.82 28.7398 136.81 27.7298 135.43 26.2198C134.05 24.7098 133.36 22.3298 133.36 19.1098C133.36 15.8898 134.45 13.5098 136.63 11.8898C138.81 10.2698 142.33 9.44984 147.21 9.44984C148.1 9.44984 148.93 9.46984 149.69 9.51984C150.46 9.56984 151.19 9.64984 151.9 9.76984L156.73 6.08984L162.53 11.6598L159.36 15.3398C159.85 16.5998 160.1 18.2498 160.1 20.3098C160.1 21.7498 159.93 23.0098 159.59 24.0798C159.25 25.1498 158.69 26.0598 157.91 26.7898C157.13 27.5298 156.11 28.0998 154.85 28.5198C153.59 28.9298 152.03 29.2198 150.16 29.3698L149.93 30.6998C151.92 30.8198 153.61 31.0098 154.99 31.2698C156.37 31.5298 157.49 31.9398 158.35 32.4898C159.21 33.0398 159.83 33.7498 160.21 34.6098C160.59 35.4698 160.79 36.5598 160.79 37.8798C160.79 40.0898 160.34 41.8098 159.46 43.0298C158.57 44.2598 157.41 45.1598 155.99 45.7398C154.56 46.3198 152.95 46.6798 151.16 46.7998C149.37 46.9198 147.56 46.9798 145.76 46.9798C142.11 46.9798 138.14 46.4298 133.85 45.3198L133.82 45.3298ZM143.76 19.1098V20.9998C143.76 21.9398 144.52 22.6998 145.46 22.6998C146.78 22.6998 147.74 22.5598 148.36 22.2898C148.97 22.0098 149.28 21.3898 149.28 20.3998V18.5098C149.28 17.5698 148.52 16.8098 147.58 16.8098H147.53C146.21 16.8098 145.25 16.9498 144.65 17.2198C144.05 17.4998 143.75 18.1198 143.75 19.1098H143.76Z" fill="#1D1D1B"/>
<path d="M164.87 37.8802V10.2802H170.39L173.43 13.3602C175.64 11.3402 178.37 10.0302 181.62 9.4502L182.26 19.8902C181.83 19.8902 181.31 19.9502 180.7 20.0702C180.09 20.1902 179.47 20.3502 178.84 20.5302C178.21 20.7102 177.64 20.9402 177.11 21.2002C176.59 21.4602 176.19 21.7602 175.91 22.1002V37.8802H164.87Z" fill="#1D1D1B"/>
<path d="M198.63 9.4502C207.46 9.4502 211.88 12.4902 211.88 18.5602V37.8802H206.36L203.23 34.7502C202.68 35.3602 202.03 35.9202 201.27 36.4102C200.52 36.9002 199.71 37.3202 198.85 37.6502C197.99 37.9802 197.12 38.2502 196.23 38.4302C195.34 38.6102 194.48 38.7102 193.65 38.7102C192.09 38.7102 190.68 38.5502 189.44 38.2302C188.2 37.9102 187.15 37.3902 186.29 36.6902C185.43 35.9802 184.77 35.0502 184.31 33.8802C183.85 32.7102 183.62 31.2902 183.62 29.6002C183.62 22.9802 188.62 19.6602 198.62 19.6602H200.83V17.6802C200.25 17.6502 199.72 17.6202 199.24 17.5902C198.76 17.5602 198.33 17.5402 197.93 17.5402C193.79 17.5402 190.22 18.0502 187.21 19.0602L185.88 11.1502C189.56 10.0202 193.81 9.4502 198.62 9.4502H198.63ZM194.77 28.4002V28.9102C194.77 29.8702 195.55 30.6502 196.51 30.6502H197.07C198.66 30.6502 199.71 30.4702 200.2 30.1002C200.63 29.7002 200.84 29.2302 200.84 28.6702V27.7902C200.84 26.8302 200.06 26.0502 199.1 26.0502H198.59C197.27 26.0502 196.3 26.1902 195.69 26.4602C195.08 26.7402 194.77 27.3802 194.77 28.3902V28.4002Z" fill="#1D1D1B"/>
<path d="M232.3 37.8802V19.1202C232.3 18.8102 232.05 18.5602 231.74 18.5702C231.19 18.5702 230.39 18.5902 230.11 18.6102C229.66 18.6402 229.27 18.7402 228.94 18.9102C228.6 19.0802 228.34 19.3302 228.16 19.6702C227.98 20.0102 227.88 20.4802 227.88 21.1002V37.8902H216.84V10.2802H222.36L224.84 12.8102C227.08 10.5702 230.02 9.4502 233.67 9.4502C237.32 9.4502 239.93 10.2002 241.58 11.7002C243.88 10.2002 246.49 9.4502 249.4 9.4502C252.31 9.4502 254.66 10.0002 256.29 11.1102C257.92 12.2202 258.78 14.0602 258.78 15.9902V37.8802H247.74V19.1202C247.74 18.8102 247.49 18.5602 247.18 18.5702C246.66 18.5702 245.93 18.5902 245.67 18.6102C245.24 18.6402 244.87 18.7202 244.54 18.8602C244.22 19.0002 243.94 19.2202 243.71 19.5302C243.48 19.8402 243.35 20.2502 243.32 20.7702V37.8802H232.28H232.3Z" fill="#1D1D1B"/>
</g>
<defs>
<clipPath id="clip0_245_165">
<rect width="258.6" height="46.99" fill="white" transform="translate(0.200195)"/>
</clipPath>
</defs>
</svg>
