<svg width="179" height="159" viewBox="0 0 179 159" fill="none" xmlns="http://www.w3.org/2000/svg">
<g clip-path="url(#clip0_210_80)">
<path d="M31.4596 124.956C48.5645 124.956 62.4309 111.751 62.4309 95.4623C62.4309 79.1733 48.5645 65.9685 31.4596 65.9685C14.3546 65.9685 0.488281 79.1733 0.488281 95.4623C0.488281 111.751 14.3546 124.956 31.4596 124.956Z" fill="#A57DB6"/>
<path d="M147.517 124.956C164.622 124.956 178.488 111.751 178.488 95.4623C178.488 79.1733 164.622 65.9685 147.517 65.9685C130.412 65.9685 116.546 79.1733 116.546 95.4623C116.546 111.751 130.412 124.956 147.517 124.956Z" fill="#A57DB6"/>
<path d="M35.9557 119.594C51.7297 119.594 64.5172 108.79 64.5172 95.4623C64.5172 82.135 51.7297 71.3311 35.9557 71.3311C20.1816 71.3311 7.39415 82.135 7.39415 95.4623C7.39415 108.79 20.1816 119.594 35.9557 119.594Z" fill="#885AA1"/>
<path d="M143.005 119.594C158.779 119.594 171.566 108.79 171.566 95.4623C171.566 82.135 158.779 71.3311 143.005 71.3311C127.231 71.3311 114.443 82.135 114.443 95.4623C114.443 108.79 127.231 119.594 143.005 119.594Z" fill="#885AA1"/>
<path d="M88.9546 26.0405C125.651 26.0405 155.442 55.7927 155.442 92.4419V111.598C155.442 137.668 134.239 158.843 108.136 158.843H69.7572C43.654 158.843 22.4512 137.668 22.4512 111.598V92.4419C22.4512 55.7927 52.2419 26.0405 88.9384 26.0405H88.9546Z" fill="#A57DB6"/>
<path opacity="0.9" d="M103.779 124.537L74.447 129.455L75.5716 136.145L104.903 131.227L103.779 124.537Z" fill="black"/>
<path d="M49.072 61.5107C62.2022 61.5107 72.8463 50.8803 72.8463 37.767C72.8463 24.6538 62.2022 14.0234 49.072 14.0234C35.9418 14.0234 25.2977 24.6538 25.2977 37.767C25.2977 50.8803 35.9418 61.5107 49.072 61.5107Z" fill="#885AA1"/>
<path d="M86.0758 48.3466C99.206 48.3466 109.85 37.7162 109.85 24.603C109.85 11.4898 99.206 0.859375 86.0758 0.859375C72.9456 0.859375 62.3015 11.4898 62.3015 24.603C62.3015 37.7162 72.9456 48.3466 86.0758 48.3466Z" fill="#885AA1"/>
<path d="M123.08 61.5107C136.21 61.5107 146.854 50.8803 146.854 37.767C146.854 24.6538 136.21 14.0234 123.08 14.0234C109.949 14.0234 99.3053 24.6538 99.3053 37.767C99.3053 50.8803 109.949 61.5107 123.08 61.5107Z" fill="#885AA1"/>
<path d="M68.431 122.453C79.1049 122.453 87.7578 111.793 87.7578 98.6444C87.7578 85.4955 79.1049 74.8362 68.431 74.8362C57.7572 74.8362 49.1043 85.4955 49.1043 98.6444C49.1043 111.793 57.7572 122.453 68.431 122.453Z" fill="white"/>
<path d="M105.58 122.453C116.254 122.453 124.907 111.793 124.907 98.6444C124.907 85.4955 116.254 74.8362 105.58 74.8362C94.9066 74.8362 86.2537 85.4955 86.2537 98.6444C86.2537 111.793 94.9066 122.453 105.58 122.453Z" fill="white"/>
<path opacity="0.9" d="M85.3823 78.232L69.0231 66.5911L63.1013 74.8916L79.4604 86.5325L85.3823 78.232Z" fill="#835599"/>
<path opacity="0.9" d="M93.9305 79.9177L111.538 70.2625L106.626 61.3286L89.0188 70.9838L93.9305 79.9177Z" fill="#835599"/>
<path d="M61.4605 103.538C66.3999 103.538 70.4041 98.6064 70.4041 92.5226C70.4041 86.4388 66.3999 81.5068 61.4605 81.5068C56.521 81.5068 52.5168 86.4388 52.5168 92.5226C52.5168 98.6064 56.521 103.538 61.4605 103.538Z" fill="#1D1D1B"/>
<path d="M97.7689 103.538C102.708 103.538 106.713 98.6064 106.713 92.5226C106.713 86.4388 102.708 81.5068 97.7689 81.5068C92.8294 81.5068 88.8252 86.4388 88.8252 92.5226C88.8252 98.6064 92.8294 103.538 97.7689 103.538Z" fill="#1D1D1B"/>
<path d="M86.755 122.743C91.0871 122.743 94.599 120.256 94.599 117.187C94.599 114.118 91.0871 111.631 86.755 111.631C82.423 111.631 78.9111 114.118 78.9111 117.187C78.9111 120.256 82.423 122.743 86.755 122.743Z" fill="#885AA1"/>
</g>
<defs>
<clipPath id="clip0_210_80">
<rect width="178" height="158" fill="white" transform="translate(0.488281 0.859375)"/>
</clipPath>
</defs>
</svg>
