<svg width="18" height="18" viewBox="0 0 18 18" fill="none" xmlns="http://www.w3.org/2000/svg">
<path fill-rule="evenodd" clip-rule="evenodd" d="M7.72656 5.20752C7.72656 4.79331 8.06235 4.45752 8.47656 4.45752C8.89078 4.45752 9.22656 4.79331 9.22656 5.20752V8.59863H12.6182C13.0324 8.59863 13.3682 8.93442 13.3682 9.34863C13.3682 9.76285 13.0324 10.0986 12.6182 10.0986H9.22656V13.4897C9.22656 13.904 8.89078 14.2397 8.47656 14.2397C8.06235 14.2397 7.72656 13.904 7.72656 13.4897V10.0986H4.33594C3.92172 10.0986 3.58594 9.76285 3.58594 9.34863C3.58594 8.93442 3.92172 8.59863 4.33594 8.59863H7.72656V5.20752Z" fill="#414141"/>
<path fill-rule="evenodd" clip-rule="evenodd" d="M4.56543 0.833252H12.5961C15.0814 0.833252 17.0961 2.84797 17.0961 5.33325V13.3639C17.0961 15.8492 15.0814 17.8639 12.5961 17.8639H4.56543C2.08015 17.8639 0.0654297 15.8492 0.0654297 13.3639V5.33325C0.0654297 2.84797 2.08015 0.833252 4.56543 0.833252ZM4.56543 2.33325C2.90858 2.33325 1.56543 3.6764 1.56543 5.33325V13.3639C1.56543 15.0207 2.90858 16.3639 4.56543 16.3639H12.5961C14.2529 16.3639 15.5961 15.0207 15.5961 13.3639V5.33325C15.5961 3.6764 14.2529 2.33325 12.5961 2.33325H4.56543Z" fill="#414141"/>
</svg>
