<svg width="17" height="13" viewBox="0 0 17 13" fill="none" xmlns="http://www.w3.org/2000/svg">
<path fill-rule="evenodd" clip-rule="evenodd" d="M0.369141 0.955444C0.369141 0.541231 0.704927 0.205444 1.11914 0.205444H16.0713C16.4855 0.205444 16.8213 0.541231 16.8213 0.955444C16.8213 1.36966 16.4855 1.70544 16.0713 1.70544H1.11914C0.704927 1.70544 0.369141 1.36966 0.369141 0.955444Z" fill="#414141"/>
<path fill-rule="evenodd" clip-rule="evenodd" d="M0.369141 6.34863C0.369141 5.93442 0.704927 5.59863 1.11914 5.59863H16.0713C16.4855 5.59863 16.8213 5.93442 16.8213 6.34863C16.8213 6.76285 16.4855 7.09863 16.0713 7.09863H1.11914C0.704927 7.09863 0.369141 6.76285 0.369141 6.34863Z" fill="#414141"/>
<path fill-rule="evenodd" clip-rule="evenodd" d="M0.369141 11.7419C0.369141 11.3277 0.704927 10.9919 1.11914 10.9919H16.0713C16.4855 10.9919 16.8213 11.3277 16.8213 11.7419C16.8213 12.1562 16.4855 12.4919 16.0713 12.4919H1.11914C0.704927 12.4919 0.369141 12.1562 0.369141 11.7419Z" fill="#414141"/>
</svg>
