<svg width="269" height="83" viewBox="0 0 269 83" fill="none" xmlns="http://www.w3.org/2000/svg">
<g filter="url(#filter0_d_845_11080)">
<path fill-rule="evenodd" clip-rule="evenodd" d="M264 20.9981C264 12.7138 257.284 5.99805 249 5.99805H20C11.7157 5.99805 5 12.7138 5 20.998V30.566C5 38.8502 11.7157 45.566 20 45.566H204.711C205.813 53.9622 213.302 60.4574 222.377 60.4574C231.451 60.4574 238.94 53.9622 240.042 45.566H249C257.284 45.566 264 38.8503 264 30.566V20.9981ZM204.184 77.9625C199.275 77.9625 195.296 74.1554 195.296 69.459C195.296 64.7627 199.275 60.9556 204.184 60.9556C209.092 60.9556 213.071 64.7627 213.071 69.459C213.071 74.1554 209.092 77.9625 204.184 77.9625Z" fill="#fff" shape-rendering="crispEdges"/>
</g>
<defs>
<filter id="filter0_d_845_11080" x="0" y="0.998047" width="269" height="81.9648" filterUnits="userSpaceOnUse" color-interpolation-filters="sRGB">
<feFlood flood-opacity="0" result="BackgroundImageFix"/>
<feColorMatrix in="SourceAlpha" type="matrix" values="0 0 0 0 0 0 0 0 0 0 0 0 0 0 0 0 0 0 127 0" result="hardAlpha"/>
<feOffset/>
<feGaussianBlur stdDeviation="2.5"/>
<feComposite in2="hardAlpha" operator="out"/>
<feColorMatrix type="matrix" values="0 0 0 0 0 0 0 0 0 0 0 0 0 0 0 0 0 0 0.2 0"/>
<feBlend mode="normal" in2="BackgroundImageFix" result="effect1_dropShadow_845_11080"/>
<feBlend mode="normal" in="SourceGraphic" in2="effect1_dropShadow_845_11080" result="shape"/>
</filter>
</defs>
</svg>
