<svg width="40" height="40" viewBox="0 0 40 40" fill="none" xmlns="http://www.w3.org/2000/svg">
<path fill-rule="evenodd" clip-rule="evenodd" d="M23.0415 10.7396C23.0415 8.12198 25.1635 6 27.7811 6C30.3987 6 32.5207 8.12198 32.5207 10.7396C32.5207 13.3572 30.3987 15.4792 27.7811 15.4792C25.1635 15.4792 23.0415 13.3572 23.0415 10.7396ZM27.7811 8.1875C26.3716 8.1875 25.229 9.33011 25.229 10.7396C25.229 12.149 26.3716 13.2917 27.7811 13.2917C29.1905 13.2917 30.3332 12.149 30.3332 10.7396C30.3332 9.33011 29.1905 8.1875 27.7811 8.1875Z" fill="#8B8B8B"/>
<path fill-rule="evenodd" clip-rule="evenodd" d="M7 20.2181C7 17.6005 9.122 15.4785 11.7396 15.4785C14.3572 15.4785 16.4792 17.6005 16.4792 20.2181C16.4792 22.8357 14.3572 24.9577 11.7396 24.9577C9.122 24.9577 7 22.8357 7 20.2181ZM11.7396 17.666C10.3301 17.666 9.1875 18.8086 9.1875 20.2181C9.1875 21.6276 10.3301 22.7702 11.7396 22.7702C13.149 22.7702 14.2917 21.6276 14.2917 20.2181C14.2917 18.8086 13.149 17.666 11.7396 17.666Z" fill="#8B8B8B"/>
<path fill-rule="evenodd" clip-rule="evenodd" d="M25.0707 12.0506C25.3838 12.5672 25.2187 13.2398 24.702 13.5528L15.47 19.1462C14.9534 19.4592 14.2808 19.2941 13.9678 18.7775C13.6548 18.2608 13.8198 17.5883 14.3365 17.2753L23.5685 11.6819C24.0852 11.3689 24.7577 11.534 25.0707 12.0506Z" fill="#8B8B8B"/>
<path fill-rule="evenodd" clip-rule="evenodd" d="M13.9616 21.5316C14.2689 21.0116 14.9396 20.8391 15.4597 21.1464L25.187 26.8944C25.7071 27.2018 25.8796 27.8725 25.5723 28.3925C25.265 28.9126 24.5942 29.085 24.0742 28.7777L14.3468 23.0297C13.8268 22.7224 13.6543 22.0517 13.9616 21.5316Z" fill="#8B8B8B"/>
<path fill-rule="evenodd" clip-rule="evenodd" d="M27.7811 27.1465C26.3716 27.1465 25.229 28.2891 25.229 29.6986C25.229 31.108 26.3716 32.2507 27.7811 32.2507C29.1905 32.2507 30.3332 31.108 30.3332 29.6986C30.3332 28.2891 29.1905 27.1465 27.7811 27.1465ZM23.0415 29.6986C23.0415 27.081 25.1635 24.959 27.7811 24.959C30.3987 24.959 32.5207 27.081 32.5207 29.6986C32.5207 32.3161 30.3987 34.4382 27.7811 34.4382C25.1635 34.4382 23.0415 32.3161 23.0415 29.6986Z" fill="#8B8B8B"/>
</svg>
