<svg width="25" height="23" viewBox="0 0 25 23" fill="none" xmlns="http://www.w3.org/2000/svg">
<path fill-rule="evenodd" clip-rule="evenodd" d="M5.79339 8.44742C6.31958 9.0232 7.21291 9.0634 7.78869 8.5372L11.3222 5.30802V15.7594C11.3222 16.5394 11.9545 17.1717 12.7345 17.1717C13.5145 17.1717 14.1468 16.5394 14.1468 15.7594V5.30984L17.6786 8.53747C18.2544 9.06367 19.1477 9.02347 19.6739 8.44769C20.2001 7.87191 20.1599 6.97858 19.5841 6.45239L13.6872 1.06335C13.5068 0.898494 13.2914 0.786938 13.0632 0.732361C12.6228 0.626809 12.1395 0.734551 11.78 1.06309L5.88317 6.45212C5.30739 6.97831 5.26719 7.87164 5.79339 8.44742ZM3.51019 14.8659C3.51019 14.0859 2.87787 13.4536 2.09787 13.4536C1.31786 13.4536 0.685547 14.0859 0.685547 14.8659V17.9672C0.685547 20.7241 2.92031 22.9589 5.67725 22.9589H19.7893C22.5462 22.9589 24.781 20.7241 24.781 17.9672V14.8659C24.781 14.0859 24.1487 13.4536 23.3687 13.4536C22.5887 13.4536 21.9563 14.0859 21.9563 14.8659V17.9672C21.9563 19.1641 20.9862 20.1343 19.7893 20.1343H5.67725C4.48031 20.1343 3.51019 19.1641 3.51019 17.9672V14.8659Z" fill="white"/>
</svg>
