<svg width="47" height="20" viewBox="0 0 47 20" fill="none" xmlns="http://www.w3.org/2000/svg">
<path d="M11.2804 0.652344H15.6124V12.4829C15.6124 16.5869 12.4964 19.2342 7.88579 19.2469C3.23716 19.2342 0.15918 16.5869 0.15918 12.4829V0.652344H4.46582V12.1283C4.46582 14.0662 5.84647 15.4722 7.88579 15.4722C9.91244 15.4722 11.2931 14.0662 11.2804 12.1283V0.652344Z" fill="#373737"/>
<path d="M18.399 18.9935V0.652344H25.8977C30.027 0.652344 32.5729 2.99566 32.5603 6.7323C32.5729 9.26561 31.4076 11.0643 29.381 11.9889L33.2189 18.9935H28.4816L25.1123 12.6856H22.7057V18.9935H18.399ZM22.7057 9.24028H24.9857C27.025 9.25295 28.1016 8.45495 28.1016 6.7323C28.1016 5.00964 27.025 4.14832 24.9857 4.14832H22.7057V9.24028Z" fill="#373737"/>
<path d="M34.9923 18.9935V0.652344H39.2989V15.4722H47.0002V18.9935H34.9923Z" fill="#373737"/>
</svg>
