<svg width="756" height="467" viewBox="0 0 756 467" fill="none" xmlns="http://www.w3.org/2000/svg">
<g filter="url(#filter0_d_205_17827)">
<rect x="8" y="8" width="724" height="439" fill="#FBF681" shape-rendering="crispEdges"/>
<rect width="724" height="46" transform="translate(8 8)" fill="black"/>
<path d="M24 31C24 27.134 27.134 24 31 24C34.866 24 38 27.134 38 31C38 34.866 34.866 38 31 38C27.134 38 24 34.866 24 31Z" stroke="white" stroke-width="2"/>
<path d="M46 31C46 27.134 49.134 24 53 24C56.866 24 60 27.134 60 31C60 34.866 56.866 38 53 38C49.134 38 46 34.866 46 31Z" stroke="white" stroke-width="2"/>
<path d="M68 31C68 27.134 71.134 24 75 24C78.866 24 82 27.134 82 31C82 34.866 78.866 38 75 38C71.134 38 68 34.866 68 31Z" stroke="white" stroke-width="2"/>
<path d="M287 22H296V23.5H297.5V28H296V29.5H290V37H287V22ZM290 23.5V28H294.5V23.5H290ZM299 23.5H300.5V22H308V23.5H309.5V37H306.5V29.5H302V37H299V23.5ZM302 23.5V28H306.5V23.5H302ZM311 23.5H312.5V22H320V23.5H321.5V25H318.5V23.5H314V35.5H318.5V29.5H317V28H321.5V37H312.5V35.5H311V23.5ZM323 23.5H324.5V22H333.5V23.5H326V28H332V29.5H326V35.5H333.5V37H324.5V35.5H323V23.5ZM347 22H356V23.5H357.5V37H354.5V23.5H350V37H347V22ZM359 23.5H360.5V22H368V23.5H369.5V35.5H368V37H360.5V35.5H359V23.5ZM362 23.5V35.5H366.5V23.5H362ZM372.5 22H381.5V23.5H378.5V37H375.5V23.5H372.5V22ZM395 23.5H396.5V22H405.5V23.5H398V28H404V29.5H398V37H395V23.5ZM407 23.5H408.5V22H416V23.5H417.5V35.5H416V37H408.5V35.5H407V23.5ZM410 23.5V35.5H414.5V23.5H410ZM419 22H422V35.5H426.5V22H429.5V35.5H428V37H420.5V35.5H419V22ZM431 22H440V23.5H441.5V37H438.5V23.5H434V37H431V22ZM443 22H452V23.5H453.5V35.5H452V37H443V22ZM446 23.5V35.5H450.5V23.5H446Z" fill="white"/>
<path fill-rule="evenodd" clip-rule="evenodd" d="M711 25V26H712V40H711V41H697V40H696V22H697V21H707V22H708V23H709V24H710V25H711ZM709 38H710V29H704V23H699V24H698V38H699V39H709V38ZM708 27V26H707V25H706V27H708ZM707 33V31H701V33H707ZM707 36V34H701V36H707Z" fill="white"/>
<path d="M154 181H160V175H196V181H166V199H190V205H166V229H196V235H160V229H154V181ZM202 175H238V181H244V199H238V205H244V235H232V205H214V235H202V175ZM214 181V199H232V181H214ZM250 175H286V181H292V199H286V205H292V235H280V205H262V235H250V175ZM262 181V199H280V181H262ZM298 181H304V175H334V181H340V229H334V235H304V229H298V181ZM310 181V229H328V181H310ZM346 175H382V181H388V199H382V205H388V235H376V205H358V235H346V175ZM358 181V199H376V181H358ZM442 187H448V181H454V175H478V205H484V211H478V235H466V211H442V187ZM454 187V205H466V181H460V187H454ZM490 181H496V175H526V181H532V229H526V235H496V229H490V181ZM502 181V205H508V199H514V193H520V181H502ZM502 217V229H520V205H514V211H508V217H502ZM538 187H544V181H550V175H574V205H580V211H574V235H562V211H538V187ZM550 187V205H562V181H556V187H550Z" fill="black"/>
<rect x="4" y="4" width="732" height="447" stroke="black" stroke-width="8" shape-rendering="crispEdges"/>
</g>
<path d="M120 264H135V266.5H137.5V274H135V276.5H125V289H120V264ZM125 266.5V274H132.5V266.5H125ZM142.5 264H152.5V286.5H157.5V289H150V286.5H147.5V266.5H142.5V264ZM160 274H162.5V271.5H175V274H177.5V279H165V286.5H172.5V284H177.5V286.5H175V289H162.5V286.5H160V274ZM165 274V276.5H172.5V274H165ZM180 271.5H195V274H197.5V289H182.5V286.5H180V279H182.5V276.5H192.5V274H180V271.5ZM185 279V286.5H192.5V279H185ZM200 274H202.5V271.5H215V274H217.5V276.5H212.5V274H205V279H215V281.5H217.5V286.5H215V289H202.5V286.5H200V284H205V286.5H212.5V281.5H202.5V279H200V274ZM220 274H222.5V271.5H235V274H237.5V279H225V286.5H232.5V284H237.5V286.5H235V289H222.5V286.5H220V274ZM225 274V276.5H232.5V274H225ZM260 266.5H262.5V264H277.5V266.5H265V274H275V276.5H265V286.5H277.5V289H262.5V286.5H260V266.5ZM280 271.5H285V274H287.5V271.5H295V274H297.5V289H292.5V274H287.5V276.5H285V289H280V271.5ZM300 271.5H302.5V264H307.5V271.5H312.5V274H307.5V286.5H312.5V284H317.5V286.5H315V289H305V286.5H302.5V274H300V271.5ZM320 274H322.5V271.5H335V274H337.5V279H325V286.5H332.5V284H337.5V286.5H335V289H322.5V286.5H320V274ZM325 274V276.5H332.5V274H325ZM340 271.5H345V274H347.5V271.5H355V274H357.5V279H352.5V274H347.5V276.5H345V289H340V271.5ZM380 271.5H395V274H397.5V289H382.5V286.5H380V279H382.5V276.5H392.5V274H380V271.5ZM385 279V286.5H392.5V279H385ZM420 264H425V284H427.5V286.5H430V284H432.5V264H437.5V284H435V286.5H432.5V289H425V286.5H422.5V284H420V264ZM440 271.5H455V274H457.5V289H442.5V286.5H440V279H442.5V276.5H452.5V274H440V271.5ZM445 279V286.5H452.5V279H445ZM462.5 264H472.5V286.5H477.5V289H470V286.5H467.5V266.5H462.5V264ZM482.5 271.5H492.5V286.5H497.5V289H490V286.5H487.5V274H482.5V271.5ZM487.5 264H492.5V269H487.5V264ZM500 274H502.5V271.5H512.5V264H517.5V289H502.5V286.5H500V274ZM505 274V286.5H512.5V274H505ZM540 264H545V286.5H552.5V264H557.5V286.5H555V289H542.5V286.5H540V264ZM560 264H575V266.5H577.5V274H575V276.5H577.5V289H572.5V276.5H565V289H560V264ZM565 266.5V274H572.5V266.5H565ZM580 264H585V286.5H597.5V289H580V264ZM607.5 284H612.5V289H607.5V284Z" fill="black"/>
<defs>
<filter id="filter0_d_205_17827" x="0" y="0" width="756" height="467" filterUnits="userSpaceOnUse" color-interpolation-filters="sRGB">
<feFlood flood-opacity="0" result="BackgroundImageFix"/>
<feColorMatrix in="SourceAlpha" type="matrix" values="0 0 0 0 0 0 0 0 0 0 0 0 0 0 0 0 0 0 127 0" result="hardAlpha"/>
<feOffset dx="16" dy="12"/>
<feComposite in2="hardAlpha" operator="out"/>
<feColorMatrix type="matrix" values="0 0 0 0 0 0 0 0 0 0 0 0 0 0 0 0 0 0 1 0"/>
<feBlend mode="normal" in2="BackgroundImageFix" result="effect1_dropShadow_205_17827"/>
<feBlend mode="normal" in="SourceGraphic" in2="effect1_dropShadow_205_17827" result="shape"/>
</filter>
</defs>
</svg>
