<svg width="756" height="467" viewBox="0 0 756 467" fill="none" xmlns="http://www.w3.org/2000/svg">
<g filter="url(#filter0_d_1053_1988)">
<rect x="8" y="8" width="724" height="439" fill="#FBF681" shape-rendering="crispEdges"/>
<rect width="724" height="46" transform="translate(8 8)" fill="black"/>
<path d="M24 31C24 27.134 27.134 24 31 24C34.866 24 38 27.134 38 31C38 34.866 34.866 38 31 38C27.134 38 24 34.866 24 31Z" stroke="white" stroke-width="2"/>
<path d="M46 31C46 27.134 49.134 24 53 24C56.866 24 60 27.134 60 31C60 34.866 56.866 38 53 38C49.134 38 46 34.866 46 31Z" stroke="white" stroke-width="2"/>
<path d="M68 31C68 27.134 71.134 24 75 24C78.866 24 82 27.134 82 31C82 34.866 78.866 38 75 38C71.134 38 68 34.866 68 31Z" stroke="white" stroke-width="2"/>
<path d="M287 22H296V23.5H297.5V28H296V29.5H290V37H287V22ZM290 23.5V28H294.5V23.5H290ZM299 23.5H300.5V22H308V23.5H309.5V37H306.5V29.5H302V37H299V23.5ZM302 23.5V28H306.5V23.5H302ZM311 23.5H312.5V22H320V23.5H321.5V25H318.5V23.5H314V35.5H318.5V29.5H317V28H321.5V37H312.5V35.5H311V23.5ZM323 23.5H324.5V22H333.5V23.5H326V28H332V29.5H326V35.5H333.5V37H324.5V35.5H323V23.5ZM347 22H356V23.5H357.5V37H354.5V23.5H350V37H347V22ZM359 23.5H360.5V22H368V23.5H369.5V35.5H368V37H360.5V35.5H359V23.5ZM362 23.5V35.5H366.5V23.5H362ZM372.5 22H381.5V23.5H378.5V37H375.5V23.5H372.5V22ZM395 23.5H396.5V22H405.5V23.5H398V28H404V29.5H398V37H395V23.5ZM407 23.5H408.5V22H416V23.5H417.5V35.5H416V37H408.5V35.5H407V23.5ZM410 23.5V35.5H414.5V23.5H410ZM419 22H422V35.5H426.5V22H429.5V35.5H428V37H420.5V35.5H419V22ZM431 22H440V23.5H441.5V37H438.5V23.5H434V37H431V22ZM443 22H452V23.5H453.5V35.5H452V37H443V22ZM446 23.5V35.5H450.5V23.5H446Z" fill="white"/>
<path fill-rule="evenodd" clip-rule="evenodd" d="M711 25V26H712V40H711V41H697V40H696V22H697V21H707V22H708V23H709V24H710V25H711ZM709 38H710V29H704V23H699V24H698V38H699V39H709V38ZM708 27V26H707V25H706V27H708ZM707 33V31H701V33H707ZM707 36V34H701V36H707Z" fill="white"/>
<path d="M154 181H160V175H196V181H166V199H190V205H166V229H196V235H160V229H154V181ZM202 175H238V181H244V199H238V205H244V235H232V205H214V235H202V175ZM214 181V199H232V181H214ZM250 175H286V181H292V199H286V205H292V235H280V205H262V235H250V175ZM262 181V199H280V181H262ZM298 181H304V175H334V181H340V229H334V235H304V229H298V181ZM310 181V229H328V181H310ZM346 175H382V181H388V199H382V205H388V235H376V205H358V235H346V175ZM358 181V199H376V181H358ZM442 187H448V181H454V175H478V205H484V211H478V235H466V211H442V187ZM454 187V205H466V181H460V187H454ZM490 181H496V175H526V181H532V229H526V235H496V229H490V181ZM502 181V205H508V199H514V193H520V181H502ZM502 217V229H520V205H514V211H508V217H502ZM538 187H544V181H550V175H574V205H580V211H574V235H562V211H538V187ZM550 187V205H562V181H556V187H550Z" fill="black"/>
<rect x="4" y="4" width="732" height="447" stroke="black" stroke-width="8" shape-rendering="crispEdges"/>
</g>
<path d="M70 264H85V266.5H87.5V274H85V276.5H75V289H70V264ZM75 266.5V274H82.5V266.5H75ZM92.5 264H102.5V286.5H107.5V289H100V286.5H97.5V266.5H92.5V264ZM110 274H112.5V271.5H125V274H127.5V279H115V286.5H122.5V284H127.5V286.5H125V289H112.5V286.5H110V274ZM115 274V276.5H122.5V274H115ZM130 271.5H145V274H147.5V289H132.5V286.5H130V279H132.5V276.5H142.5V274H130V271.5ZM135 279V286.5H142.5V279H135ZM150 274H152.5V271.5H165V274H167.5V276.5H162.5V274H155V279H165V281.5H167.5V286.5H165V289H152.5V286.5H150V284H155V286.5H162.5V281.5H152.5V279H150V274ZM170 274H172.5V271.5H185V274H187.5V279H175V286.5H182.5V284H187.5V286.5H185V289H172.5V286.5H170V274ZM175 274V276.5H182.5V274H175ZM210 266.5H212.5V264H227.5V266.5H215V274H225V276.5H215V286.5H227.5V289H212.5V286.5H210V266.5ZM230 271.5H235V274H237.5V271.5H245V274H247.5V289H242.5V274H237.5V276.5H235V289H230V271.5ZM250 271.5H252.5V264H257.5V271.5H262.5V274H257.5V286.5H262.5V284H267.5V286.5H265V289H255V286.5H252.5V274H250V271.5ZM270 274H272.5V271.5H285V274H287.5V279H275V286.5H282.5V284H287.5V286.5H285V289H272.5V286.5H270V274ZM275 274V276.5H282.5V274H275ZM290 271.5H295V274H297.5V271.5H305V274H307.5V279H302.5V274H297.5V276.5H295V289H290V271.5ZM330 271.5H345V274H347.5V289H332.5V286.5H330V279H332.5V276.5H342.5V274H330V271.5ZM335 279V286.5H342.5V279H335ZM370 264H375V284H377.5V286.5H380V284H382.5V264H387.5V284H385V286.5H382.5V289H375V286.5H372.5V284H370V264ZM390 271.5H405V274H407.5V289H392.5V286.5H390V279H392.5V276.5H402.5V274H390V271.5ZM395 279V286.5H402.5V279H395ZM412.5 264H422.5V286.5H427.5V289H420V286.5H417.5V266.5H412.5V264ZM432.5 271.5H442.5V286.5H447.5V289H440V286.5H437.5V274H432.5V271.5ZM437.5 264H442.5V269H437.5V264ZM450 274H452.5V271.5H462.5V264H467.5V289H452.5V286.5H450V274ZM455 274V286.5H462.5V274H455ZM490 264H495V286.5H502.5V264H507.5V286.5H505V289H492.5V286.5H490V264ZM510 274H512.5V271.5H525V274H527.5V276.5H522.5V274H515V279H525V281.5H527.5V286.5H525V289H512.5V286.5H510V284H515V286.5H522.5V281.5H512.5V279H510V274ZM530 274H532.5V271.5H545V274H547.5V279H535V286.5H542.5V284H547.5V286.5H545V289H532.5V286.5H530V274ZM535 274V276.5H542.5V274H535ZM550 271.5H555V274H557.5V271.5H565V274H567.5V279H562.5V274H557.5V276.5H555V289H550V271.5ZM570 271.5H575V274H577.5V271.5H585V274H587.5V289H582.5V274H577.5V276.5H575V289H570V271.5ZM590 271.5H605V274H607.5V289H592.5V286.5H590V279H592.5V276.5H602.5V274H590V271.5ZM595 279V286.5H602.5V279H595ZM610 271.5H625V274H627.5V289H622.5V274H620V289H617.5V274H615V289H610V271.5ZM630 274H632.5V271.5H645V274H647.5V279H635V286.5H642.5V284H647.5V286.5H645V289H632.5V286.5H630V274ZM635 274V276.5H642.5V274H635ZM657.5 284H662.5V289H657.5V284Z" fill="black"/>
<defs>
<filter id="filter0_d_1053_1988" x="0" y="0" width="756" height="467" filterUnits="userSpaceOnUse" color-interpolation-filters="sRGB">
<feFlood flood-opacity="0" result="BackgroundImageFix"/>
<feColorMatrix in="SourceAlpha" type="matrix" values="0 0 0 0 0 0 0 0 0 0 0 0 0 0 0 0 0 0 127 0" result="hardAlpha"/>
<feOffset dx="16" dy="12"/>
<feComposite in2="hardAlpha" operator="out"/>
<feColorMatrix type="matrix" values="0 0 0 0 0 0 0 0 0 0 0 0 0 0 0 0 0 0 1 0"/>
<feBlend mode="normal" in2="BackgroundImageFix" result="effect1_dropShadow_1053_1988"/>
<feBlend mode="normal" in="SourceGraphic" in2="effect1_dropShadow_1053_1988" result="shape"/>
</filter>
</defs>
</svg>
