<svg width="300" height="301" viewBox="0 0 300 301" fill="none" xmlns="http://www.w3.org/2000/svg">
<g clip-path="url(#clip0_284_65)">
<path d="M150 300.5C232.843 300.5 300 233.343 300 150.5C300 67.6573 232.843 0.5 150 0.5C67.1573 0.5 0 67.6573 0 150.5C0 233.343 67.1573 300.5 150 300.5Z" fill="white"/>
<path d="M64.6035 153.678H43.5748L47.4299 90.8384H73.6568L81.4491 122.848H82.2078L90 90.8384H116.309L120.082 153.678H99.0533L97.8845 123.176H97.218L89.5078 153.678H74.1695L66.3773 123.176H65.7929L64.624 153.678H64.6035Z" fill="#1D1D1B"/>
<path d="M161.914 153.678H125.803V90.8384H158.397C164.426 90.8384 168.732 92.0072 171.295 94.3551C173.858 96.703 175.15 100.107 175.15 104.577C175.15 109.048 174.34 112.575 172.72 115.004C171.1 117.434 168.896 119.044 166.107 119.823V120.408C174.207 121.802 178.257 127.339 178.257 136.997C178.257 142.021 176.924 146.061 174.279 149.106C171.623 152.151 167.502 153.668 161.924 153.668L161.914 153.678ZM152.276 104.577H146.822C146.319 104.577 145.909 104.987 145.909 105.49V113.046C145.909 113.549 146.319 113.959 146.822 113.959H152.112C154.686 113.959 155.967 112.4 155.967 109.263C155.967 106.125 154.737 104.567 152.276 104.567V104.577ZM153.783 128.62H146.822C146.319 128.62 145.909 129.03 145.909 129.533V138.012C145.909 138.514 146.319 138.924 146.822 138.924H153.619C156.47 138.924 157.895 137.192 157.895 133.726C157.895 130.261 156.521 128.62 153.794 128.62H153.783Z" fill="#1D1D1B"/>
<path d="M229.122 106.925H214.542V153.678H194.436V106.925H179.856V90.8384H229.122V106.925Z" fill="#1D1D1B"/>
<path d="M236.309 153.678V90.8384H256.415V153.678H236.309Z" fill="#1D1D1B"/>
<path d="M46.7225 223.859L49.0909 210.202C54.3301 211.986 60.4101 212.878 67.3308 212.878C68.3458 212.878 69.2276 212.868 69.9658 212.837C70.704 212.807 71.2782 212.776 71.678 212.725V209.516C68.9303 209.516 66.6951 209.454 64.9624 209.321C63.2296 209.198 61.9378 209.003 61.0663 208.747C59.3335 208.285 58.2467 207.834 57.7853 207.373C57.2214 206.911 56.8933 206.542 56.7908 206.265C56.6883 205.989 56.637 205.568 56.637 205.004L59.3848 197.14C55.0068 196.33 51.6746 194.659 49.3882 192.137C47.1018 189.615 45.9535 185.688 45.9535 180.346C45.9535 175.004 47.758 171.067 51.367 168.36C54.976 165.664 60.8305 164.321 68.92 164.321C70.3964 164.321 71.7703 164.362 73.0417 164.434C74.313 164.505 75.5331 164.649 76.702 164.854L84.7095 158.753L94.3267 167.991L89.0567 174.092C89.8667 176.183 90.2768 178.931 90.2768 182.335C90.2768 184.724 90 186.816 89.4361 188.589C88.8722 190.373 87.9494 191.87 86.6473 193.09C85.3452 194.31 83.6534 195.264 81.5721 195.951C79.4805 196.638 76.8968 197.11 73.7901 197.366L73.4108 199.58C76.7225 199.786 79.5112 200.103 81.8079 200.534C84.0943 200.965 85.9501 201.641 87.3752 202.554C88.8004 203.466 89.8257 204.645 90.4614 206.06C91.097 207.485 91.4149 209.29 91.4149 211.474C91.4149 215.134 90.6767 217.984 89.2002 220.025C87.7238 222.055 85.8065 223.562 83.4381 224.526C81.0697 225.49 78.4039 226.074 75.4203 226.279C72.4367 226.484 69.4531 226.587 66.4593 226.587C60.3998 226.587 53.8175 225.674 46.6917 223.839L46.7225 223.859ZM63.2091 180.356V183.483C63.2091 185.042 64.4702 186.303 66.0287 186.303C68.2125 186.303 69.8223 186.077 70.8373 185.616C71.8523 185.155 72.365 184.119 72.365 182.489V179.362C72.365 177.803 71.1039 176.542 69.5454 176.542H69.4737C67.2898 176.542 65.7006 176.768 64.7061 177.229C63.7115 177.691 63.2194 178.726 63.2194 180.356H63.2091Z" fill="#1D1D1B"/>
<path d="M98.233 211.494V165.705H107.389L112.423 170.821C116.083 167.468 120.615 165.305 126.008 164.331L127.074 181.658C126.357 181.658 125.496 181.761 124.48 181.966C123.465 182.171 122.43 182.427 121.394 182.725C120.349 183.032 119.395 183.401 118.534 183.832C117.673 184.263 117.006 184.765 116.545 185.319V211.494H98.233Z" fill="#1D1D1B"/>
<path d="M154.245 164.331C168.896 164.331 176.227 169.365 176.227 179.444V211.494H167.071L161.883 206.306C160.971 207.321 159.884 208.244 158.643 209.054C157.392 209.864 156.059 210.551 154.634 211.115C153.209 211.679 151.763 212.11 150.287 212.407C148.811 212.715 147.385 212.868 146.012 212.868C143.418 212.868 141.09 212.602 139.029 212.069C136.969 211.535 135.226 210.684 133.8 209.516C132.375 208.347 131.278 206.799 130.519 204.861C129.761 202.923 129.371 200.565 129.371 197.766C129.371 186.775 137.666 181.279 154.245 181.279H157.905V177.998C156.941 177.947 156.059 177.896 155.27 177.844C154.48 177.793 153.753 177.773 153.096 177.773C146.227 177.773 140.301 178.613 135.318 180.295L133.103 167.171C139.204 165.285 146.258 164.352 154.245 164.352V164.331ZM147.837 195.777V196.628C147.837 198.227 149.128 199.519 150.728 199.519H151.651C154.296 199.519 156.029 199.211 156.839 198.607C157.556 197.95 157.905 197.161 157.905 196.238V194.782C157.905 193.183 156.613 191.891 155.014 191.891H154.163C151.979 191.891 150.369 192.116 149.354 192.578C148.339 193.039 147.826 194.105 147.826 195.787L147.837 195.777Z" fill="#1D1D1B"/>
<path d="M210.102 211.494V180.377C210.102 179.864 209.692 179.454 209.18 179.454C208.267 179.464 206.945 179.485 206.483 179.516C205.745 179.567 205.099 179.731 204.535 180.008C203.971 180.285 203.541 180.705 203.233 181.269C202.925 181.833 202.772 182.612 202.772 183.637V211.494H184.46V165.705H193.616L197.737 169.898C201.449 166.187 206.34 164.331 212.389 164.331C218.438 164.331 222.765 165.582 225.513 168.073C229.327 165.582 233.653 164.331 238.483 164.331C243.312 164.331 247.197 165.254 249.925 167.089C252.58 168.883 254.057 171.98 254.057 175.189V211.494H235.745V180.377C235.745 179.864 235.335 179.454 234.822 179.454C233.961 179.464 232.751 179.485 232.31 179.516C231.593 179.567 230.977 179.71 230.444 179.936C229.911 180.162 229.45 180.531 229.07 181.043C228.691 181.556 228.476 182.243 228.424 183.104V211.494H210.113H210.102Z" fill="#1D1D1B"/>
</g>
<defs>
<clipPath id="clip0_284_65">
<rect width="300" height="300" fill="white" transform="translate(0 0.5)"/>
</clipPath>
</defs>
</svg>
